# xmcd CD database file
#
# Track frame offsets:
#	150
#	23100
#	43242
#	47868
#	67168
#	82515
#	120672
#
# Disc length: 1936 seconds
#
# Revision: 0
# Processed by: cddbd v1.5.1PL2 Copyright (c) Steve Scherf et al.
# Submitted via: CDex 1.51
#
DISCID=57078e07
DTITLE=Jamie Woon - How Long
DYEAR=2005
DGENRE=Jazz
TTITLE0=Robots
TTITLE1=Guilty as Charged
TTITLE2=Inter-lewd
TTITLE3=Breathing Binary
TTITLE4=Stickey Grip
TTITLE5=Tolerated
TTITLE6=Gravity
EXTD=YEAR: 2005
EXTT0=
EXTT1=
EXTT2=
EXTT3=
EXTT4=
EXTT5=
EXTT6=
PLAYORDER=
